<svg width="173" height="31" viewBox="0 0 173 31" fill="none" xmlns="http://www.w3.org/2000/svg">
<g clip-path="url(#clip0_105_8262)">
<path fill-rule="evenodd" clip-rule="evenodd" d="M42.3074 1.85299H33.0303V14.3579H37.9639V10.6408H41.9622C45.4257 10.6408 47.7534 9.52016 47.7534 6.16925C47.7645 3.36202 46.0383 1.85299 42.3074 1.85299ZM41.2494 7.45637H37.9639V5.09296H41.2494C42.3296 5.09296 42.842 5.43692 42.842 6.21364C42.842 7.0791 42.3296 7.45637 41.2494 7.45637ZM56.4625 4.59365C54.5469 4.59365 53.5446 5.39254 53.0769 6.025V1.86408H48.6666V14.369H53.0769V9.38698C53.0769 8.31073 53.3664 7.54509 54.6583 7.54509C55.9724 7.54509 56.1841 8.33292 56.1841 9.38698V14.369H60.5943V8.48823C60.5831 5.88075 59.2022 4.59365 56.4625 4.59365ZM69.3148 4.83776L67.3769 9.98622L65.2941 4.83776H60.7614L65.3389 14.2914L63.6344 17.3427H68.1231L73.8582 4.83776H69.3148ZM81.7994 4.83776H86.209V13.6478C86.209 17.3427 82.9463 17.6867 79.3712 17.6867C75.1725 17.6867 73.6354 16.3774 73.5576 14.4467H77.5895C77.7675 15.068 78.6699 15.1457 79.36 15.1457C80.3961 15.1457 81.777 15.179 81.777 13.6478V12.8267C81.1087 13.4369 80.1397 13.7698 78.7812 13.7698C75.8185 13.7698 73.2907 12.5049 73.2907 9.26497C73.2907 6.03609 75.4843 4.58254 78.4359 4.58254C79.9281 4.58254 81.0197 4.9598 81.777 5.69212V4.83776H81.7994ZM79.828 11.1513C81.3539 11.1513 82.1442 10.5299 82.1442 9.27607C82.1442 8.01114 81.2978 7.37868 79.828 7.37868C78.3357 7.37868 77.5895 8.08883 77.5895 9.27607C77.5895 10.4522 78.3021 11.1513 79.828 11.1513ZM89.4948 4.12763C90.8203 4.12763 91.7556 3.37311 91.7556 2.0749C91.7556 0.754509 90.8203 0 89.4948 0C88.1693 0 87.234 0.754509 87.234 2.0749C87.234 3.37311 88.1693 4.12763 89.4948 4.12763ZM87.2894 14.369H91.6996V4.84885H87.2894V14.369ZM101.4 7.22337V4.84885H98.6047V2.38559H94.1944V4.84885H92.424V7.22337H94.1944V10.4078C94.1944 13.8253 95.5087 14.5355 99.418 14.5355C100.086 14.5355 100.821 14.4689 101.411 14.3912V11.5396C99.0279 11.6616 98.6159 11.5729 98.6159 10.3967V7.21227H101.4V7.22337ZM108.216 4.59365C105.02 4.59365 102.981 5.41474 102.637 7.73376H106.579C106.701 7.14569 107.247 6.94592 108.216 6.94592C109.474 6.94592 109.775 7.38978 109.775 8.26634V8.49933C103.461 8.19975 102.113 9.52016 102.113 11.7282C102.113 13.6922 103.561 14.6242 106.278 14.6242C108.005 14.6242 109.129 14.0472 109.775 13.4037V14.3468H114.185V8.25524C114.196 5.12623 111.379 4.59365 108.216 4.59365ZM109.786 11.7615C109.308 12.2053 108.55 12.5271 107.593 12.5271C107.013 12.5271 106.356 12.4051 106.356 11.6727C106.356 10.6852 107.581 10.6187 109.786 10.7296V11.7615ZM115.266 1.17615V14.3579H119.676V1.17615H115.266ZM122.171 12.1831C121.491 12.1831 120.935 12.7158 120.935 13.3926C120.935 14.0694 121.491 14.6132 122.171 14.6132C122.839 14.6132 123.396 14.0805 123.396 13.3926C123.396 12.7047 122.839 12.1831 122.171 12.1831ZM137.94 4.83776H140.268L136.504 14.3579H134.355L131.737 7.45637L129.142 14.3579H126.993L123.229 4.83776H125.557L128.118 11.8281L130.757 4.83776H132.751L135.39 11.8281L137.94 4.83776ZM146.104 4.57145C143.308 4.57145 140.636 6.09157 140.636 9.60894C140.636 13.1263 143.308 14.6353 146.104 14.6353C148.899 14.6353 151.594 13.1374 151.594 9.60894C151.583 6.09157 148.899 4.57145 146.104 4.57145ZM146.104 13.0043C143.542 13.0043 142.662 11.2733 142.662 9.60894C142.662 7.93346 143.542 6.19142 146.104 6.19142C148.666 6.19142 149.545 7.92236 149.545 9.60894C149.545 11.2733 148.666 13.0043 146.104 13.0043ZM159.424 4.57145C157.364 4.57145 156.038 5.92514 155.604 6.6242V4.83776H153.377V14.3579H155.604V9.52016C155.604 8.03334 156.517 6.64634 158.945 6.64634C159.557 6.64634 160.036 6.71293 160.415 6.82391H160.482V4.64911C160.103 4.59364 159.858 4.57145 159.424 4.57145ZM169.815 14.369H172.432L168.122 8.61031L172.198 4.83776H169.436L164.502 9.46467V1.85299H162.275V14.3579H164.502V11.9612L166.563 10.0305L169.815 14.369Z" fill="#141414"/>
<path fill-rule="evenodd" clip-rule="evenodd" d="M27.9536 16.2575H14.4014V2.60082C14.4014 1.60909 13.5978 0.808435 12.6024 0.808435C11.8809 0.808435 11.2599 1.22697 10.9768 1.83656C9.87189 1.15418 8.58422 0.762939 7.19612 0.762939C3.22366 0.762939 0 3.97468 0 7.93245C0 11.8903 3.22366 15.102 7.19612 15.102C8.51116 15.102 9.74401 14.7472 10.8034 14.1285C10.8034 14.8564 10.8034 15.566 10.8034 16.2575H7.58885C7.46097 16.2484 7.324 16.2484 7.19612 16.2484C3.22366 16.2484 0 19.4601 0 23.4179C0 27.3757 3.22366 30.5874 7.19612 30.5874C11.1686 30.5874 14.3923 27.3757 14.3923 23.4179C14.3923 23.2269 14.3831 23.0358 14.3649 22.8538H14.4106V19.8513H27.8897L27.9536 16.2575ZM7.18703 11.5172C5.20534 11.5172 3.58894 9.90684 3.58894 7.93245C3.58894 5.95812 5.20534 4.3477 7.18703 4.3477C9.16869 4.3477 10.7851 5.95812 10.7851 7.93245C10.7851 9.91589 9.17784 11.5172 7.18703 11.5172ZM10.8034 23.1086C10.8034 23.2177 10.7942 23.3178 10.7851 23.4179C10.7851 25.3923 9.16869 27.0027 7.18703 27.0027C5.20534 27.0027 3.58894 25.3923 3.58894 23.4179C3.58894 21.5073 5.08662 19.9515 6.977 19.8423V19.8513H10.8034C10.8034 21.671 10.8034 22.8538 10.8034 22.8538H10.8125C10.7942 22.9357 10.8034 23.0267 10.8034 23.1086ZM22.3647 4.3477C24.3464 4.3477 25.9628 5.95812 25.9628 7.93245C25.9628 9.90684 24.3464 11.5172 22.3647 11.5172C20.383 11.5172 18.7666 9.90684 18.7666 7.93245C18.7666 5.95812 20.3739 4.3477 22.3647 4.3477ZM22.3647 0.762939C26.3372 0.762939 29.5608 3.97468 29.5608 7.93245C29.5608 11.8903 26.3372 15.102 22.3647 15.102C18.3922 15.102 15.1686 11.8903 15.1686 7.93245C15.1686 3.97468 18.3922 0.762939 22.3647 0.762939Z" fill="#C72031"/>
<path fill-rule="evenodd" clip-rule="evenodd" d="M30.3273 17.6778C29.6607 17.1865 28.4917 16.3313 27.7246 15.7671C27.5785 15.6671 27.3959 15.6489 27.2315 15.7307C27.0762 15.8126 26.9758 15.9673 26.9758 16.1493C26.9758 16.1857 26.9758 16.2221 26.9758 16.2585H14.3369V19.8523H26.9758C26.9758 19.8887 26.9758 19.9342 26.9758 19.9706C26.9758 20.1435 27.0762 20.3073 27.2315 20.3892C27.3868 20.471 27.5785 20.4529 27.7246 20.3437C28.4917 19.7795 29.6607 18.9243 30.3273 18.433C30.446 18.342 30.5191 18.2055 30.5191 18.06C30.5191 17.9144 30.446 17.7688 30.3273 17.6778Z" fill="#C72031"/>
</g>
<defs>
<clipPath id="clip0_105_8262">
<rect width="173" height="31" fill="white"/>
</clipPath>
</defs>
</svg>
